<svg width="705" height="529" viewBox="0 0 705 529" fill="none" xmlns="http://www.w3.org/2000/svg">
<path d="M401.357 442.844C396.923 442.893 392.506 442.3 388.243 441.08C376.999 437.695 366.935 428.261 360.66 415.23C355.038 403.556 352.782 390.702 350.614 378.2C350.591 378.088 350.592 377.973 350.616 377.862C350.639 377.75 350.686 377.645 350.752 377.552C350.818 377.46 350.902 377.382 351 377.323C351.098 377.265 351.206 377.227 351.319 377.212C351.429 377.192 351.542 377.194 351.651 377.217C351.761 377.241 351.864 377.286 351.956 377.35C352.048 377.414 352.126 377.496 352.186 377.59C352.246 377.684 352.287 377.79 352.306 377.9C354.456 390.243 356.677 402.975 362.194 414.436C368.274 427.044 377.95 436.125 388.737 439.387C396.58 441.733 405.128 441.151 413.201 440.199C430.491 438.153 441.03 432.793 445.454 423.835C445.613 423.482 445.771 423.165 445.877 422.865C443.11 423.641 440.378 424.628 437.699 425.633C435.479 426.445 433.187 427.273 430.896 427.996C419.744 431.498 407.916 432.272 396.404 430.253C390.852 429.266 387.468 426.586 387.345 423.094C387.221 419.603 390.235 416.817 395.611 415.265C410.34 410.982 425.943 410.696 440.819 414.436C445.049 415.494 447.375 417.258 447.869 419.814C447.921 420.094 447.957 420.377 447.975 420.661C448.644 420.502 449.314 420.361 450.002 420.238C457.157 418.968 464.63 419.691 471.857 420.379C482.114 421.366 491.808 422.301 500.55 417.998C500.756 417.901 500.992 417.889 501.206 417.965C501.421 418.041 501.597 418.199 501.696 418.404C501.747 418.504 501.777 418.614 501.785 418.726C501.793 418.839 501.779 418.952 501.743 419.058C501.707 419.165 501.65 419.264 501.575 419.348C501.5 419.432 501.409 419.501 501.308 419.55C492.125 424.046 481.744 423.077 471.698 422.089C464.648 421.401 457.228 420.696 450.301 421.93C449.455 422.071 448.539 422.265 447.781 422.459C447.574 423.24 447.284 423.997 446.917 424.716C442.229 434.238 431.231 439.899 413.342 442.032C409.366 442.54 405.364 442.811 401.357 442.844ZM419.739 413.502C411.736 413.504 403.773 414.638 396.087 416.87C393.936 417.487 388.931 419.356 389.037 423.006C389.142 426.656 394.906 428.296 396.668 428.525C407.9 430.531 419.449 429.817 430.35 426.445C432.606 425.739 434.879 424.91 437.065 424.117C440.079 423.006 443.145 421.877 446.3 421.049C446.337 420.75 446.337 420.448 446.3 420.149C445.895 418.28 443.974 416.958 440.431 416.058C433.666 414.356 426.716 413.497 419.739 413.502Z" fill="#C4D2E0"/>
<path d="M608.926 172.983H494.205C489.572 172.983 485.816 176.741 485.816 181.376V426.832C485.816 431.468 489.572 435.226 494.205 435.226H608.926C613.559 435.226 617.316 431.468 617.316 426.832V181.376C617.316 176.741 613.559 172.983 608.926 172.983Z" fill="white"/>
<path d="M608.926 436.072H494.205C491.757 436.068 489.411 435.093 487.68 433.361C485.949 431.629 484.974 429.282 484.97 426.832V181.359C484.974 178.91 485.949 176.562 487.68 174.83C489.411 173.099 491.757 172.124 494.205 172.119H608.926C611.377 172.119 613.728 173.092 615.463 174.824C617.198 176.556 618.175 178.907 618.179 181.359V426.832C618.175 429.285 617.198 431.635 615.463 433.367C613.728 435.099 611.377 436.072 608.926 436.072ZM494.205 173.829C492.209 173.829 490.295 174.623 488.883 176.035C487.472 177.447 486.679 179.362 486.679 181.359V426.832C486.679 428.829 487.472 430.745 488.883 432.157C490.295 433.569 492.209 434.362 494.205 434.362H608.926C610.922 434.362 612.836 433.569 614.248 432.157C615.659 430.745 616.452 428.829 616.452 426.832V181.359C616.452 179.362 615.659 177.447 614.248 176.035C612.836 174.623 610.922 173.829 608.926 173.829H494.205Z" fill="#414141"/>
<path d="M610.407 196.7H492.724V398.513H610.407V196.7Z" fill="#68E1FD"/>
<path d="M562.766 408.335H540.365C537.523 408.335 535.218 410.64 535.218 413.484V422.071C535.218 424.915 537.523 427.22 540.365 427.22H562.766C565.609 427.22 567.913 424.915 567.913 422.071V413.484C567.913 410.64 565.609 408.335 562.766 408.335Z" fill="white"/>
<path d="M562.749 428.067H540.383C538.789 428.067 537.26 427.433 536.133 426.306C535.006 425.178 534.372 423.649 534.372 422.054V413.502C534.372 411.907 535.006 410.378 536.133 409.25C537.26 408.122 538.789 407.489 540.383 407.489H562.749C563.539 407.486 564.323 407.64 565.054 407.941C565.785 408.242 566.45 408.685 567.01 409.244C567.57 409.802 568.014 410.466 568.317 411.197C568.62 411.927 568.776 412.711 568.776 413.502V422.054C568.772 423.65 568.135 425.18 567.005 426.307C565.875 427.434 564.344 428.067 562.749 428.067ZM540.383 409.199C539.242 409.199 538.148 409.652 537.342 410.459C536.535 411.266 536.082 412.361 536.082 413.502V422.054C536.082 423.195 536.535 424.289 537.342 425.096C538.148 425.903 539.242 426.356 540.383 426.356H562.749C563.889 426.356 564.983 425.903 565.79 425.096C566.596 424.289 567.049 423.195 567.049 422.054V413.502C567.049 412.361 566.596 411.266 565.79 410.459C564.983 409.652 563.889 409.199 562.749 409.199H540.383Z" fill="#C4D2E0"/>
<path d="M563.454 185.15H529.966C529.854 185.152 529.742 185.132 529.637 185.091C529.532 185.049 529.437 184.987 529.357 184.908C529.276 184.83 529.212 184.735 529.169 184.632C529.125 184.528 529.103 184.416 529.103 184.304C529.103 184.074 529.193 183.855 529.355 183.693C529.517 183.531 529.737 183.44 529.966 183.44H563.454C563.566 183.44 563.678 183.462 563.782 183.506C563.885 183.549 563.979 183.613 564.058 183.694C564.137 183.774 564.199 183.87 564.24 183.974C564.282 184.079 564.302 184.191 564.3 184.304C564.302 184.415 564.282 184.527 564.24 184.63C564.198 184.734 564.136 184.828 564.057 184.907C563.978 184.987 563.884 185.049 563.78 185.09C563.676 185.132 563.565 185.152 563.454 185.15Z" fill="#C4D2E0"/>
<path d="M572.636 185.15H568.142C567.917 185.15 567.702 185.061 567.544 184.902C567.385 184.743 567.296 184.528 567.296 184.304C567.296 184.077 567.384 183.86 567.543 183.699C567.701 183.537 567.916 183.444 568.142 183.44H572.636C572.865 183.44 573.085 183.531 573.247 183.693C573.409 183.855 573.5 184.074 573.5 184.304C573.5 184.416 573.477 184.528 573.434 184.632C573.39 184.735 573.326 184.83 573.246 184.908C573.165 184.987 573.07 185.049 572.965 185.091C572.861 185.132 572.749 185.152 572.636 185.15Z" fill="#C4D2E0"/>
<path d="M595.461 323.501H507.6C505.852 323.501 504.175 322.806 502.939 321.57C501.703 320.333 501.008 318.655 501.008 316.906V273.493C501.006 272.625 501.175 271.766 501.505 270.964C501.835 270.162 502.32 269.433 502.933 268.818C503.545 268.204 504.272 267.717 505.073 267.384C505.874 267.052 506.733 266.881 507.6 266.881H595.39C597.143 266.881 598.824 267.577 600.064 268.817C601.303 270.057 602 271.739 602 273.493V316.906C601.995 318.645 601.306 320.312 600.082 321.546C598.859 322.78 597.198 323.483 595.461 323.501ZM507.6 268.609C506.305 268.609 505.063 269.123 504.148 270.039C503.232 270.955 502.718 272.198 502.718 273.493V316.906C502.718 318.202 503.232 319.444 504.148 320.36C505.063 321.276 506.305 321.791 507.6 321.791H595.39C596.685 321.791 597.927 321.276 598.842 320.36C599.758 319.444 600.272 318.202 600.272 316.906V273.493C600.272 272.198 599.758 270.955 598.842 270.039C597.927 269.123 596.685 268.609 595.39 268.609H507.6Z" fill="white"/>
<path d="M501.925 318.511C501.748 318.508 501.576 318.45 501.433 318.346C501.29 318.242 501.182 318.096 501.125 317.929C501.067 317.761 501.062 317.58 501.111 317.41C501.159 317.24 501.259 317.089 501.396 316.977L544.894 282.539C545.063 282.41 545.273 282.348 545.484 282.365C545.695 282.381 545.893 282.474 546.04 282.627L572.002 309.571C572.162 309.733 572.252 309.951 572.252 310.179C572.252 310.407 572.162 310.626 572.002 310.788C571.923 310.866 571.83 310.929 571.727 310.972C571.624 311.014 571.514 311.036 571.403 311.036C571.291 311.036 571.181 311.014 571.078 310.972C570.975 310.929 570.882 310.866 570.803 310.788L545.388 284.338L502.489 318.299C502.334 318.438 502.133 318.514 501.925 318.511Z" fill="white"/>
<path d="M601.206 309.871C601.085 309.869 600.966 309.841 600.857 309.79C600.747 309.738 600.65 309.663 600.572 309.571L586.155 293.225L569.675 306.996C569.502 307.141 569.279 307.212 569.054 307.192C568.829 307.172 568.622 307.064 568.477 306.891C568.332 306.717 568.262 306.494 568.281 306.269C568.301 306.044 568.41 305.836 568.583 305.691L585.696 291.373C585.854 291.219 586.066 291.133 586.287 291.133C586.507 291.133 586.719 291.219 586.877 291.373L601.841 308.354C601.92 308.433 601.982 308.526 602.025 308.629C602.068 308.732 602.09 308.842 602.09 308.954C602.09 309.065 602.068 309.175 602.025 309.278C601.982 309.381 601.92 309.475 601.841 309.553C601.768 309.653 601.672 309.734 601.562 309.789C601.452 309.844 601.33 309.872 601.206 309.871Z" fill="white"/>
<path d="M571.385 289.892C570.062 289.895 568.768 289.506 567.667 288.773C566.566 288.04 565.707 286.996 565.199 285.775C564.691 284.553 564.558 283.208 564.815 281.909C565.072 280.611 565.709 279.419 566.644 278.483C567.579 277.548 568.771 276.911 570.068 276.653C571.366 276.396 572.71 276.53 573.932 277.038C575.153 277.546 576.196 278.405 576.929 279.507C577.661 280.609 578.051 281.903 578.047 283.227C578.042 284.993 577.339 286.686 576.091 287.935C574.842 289.184 573.15 289.887 571.385 289.892ZM571.385 278.254C570.401 278.251 569.438 278.539 568.619 279.083C567.799 279.628 567.159 280.403 566.78 281.311C566.402 282.22 566.301 283.22 566.49 284.186C566.68 285.152 567.152 286.039 567.847 286.736C568.541 287.434 569.426 287.909 570.391 288.102C571.356 288.296 572.356 288.198 573.265 287.822C574.174 287.446 574.952 286.809 575.499 285.991C576.046 285.173 576.337 284.211 576.337 283.227C576.338 281.911 575.816 280.649 574.888 279.717C573.96 278.785 572.7 278.259 571.385 278.254Z" fill="white"/>
<path d="M514.439 365.662H509.697C506.368 365.662 503.67 368.362 503.67 371.693V379.099C503.67 382.43 506.368 385.13 509.697 385.13H514.439C517.768 385.13 520.466 382.43 520.466 379.099V371.693C520.466 368.362 517.768 365.662 514.439 365.662Z" fill="white"/>
<path d="M540.77 365.662H536.029C532.7 365.662 530.001 368.362 530.001 371.693V379.099C530.001 382.43 532.7 385.13 536.029 385.13H540.77C544.099 385.13 546.798 382.43 546.798 379.099V371.693C546.798 368.362 544.099 365.662 540.77 365.662Z" fill="white"/>
<path d="M567.102 365.662H562.361C559.032 365.662 556.333 368.362 556.333 371.693V379.099C556.333 382.43 559.032 385.13 562.361 385.13H567.102C570.431 385.13 573.13 382.43 573.13 379.099V371.693C573.13 368.362 570.431 365.662 567.102 365.662Z" fill="white"/>
<path d="M593.434 365.662H588.693C585.364 365.662 582.665 368.362 582.665 371.693V379.099C582.665 382.43 585.364 385.13 588.693 385.13H593.434C596.763 385.13 599.461 382.43 599.461 379.099V371.693C599.461 368.362 596.763 365.662 593.434 365.662Z" fill="white"/>
<path d="M599.955 213.522H503.176C503.064 213.524 502.952 213.504 502.847 213.463C502.742 213.421 502.647 213.359 502.566 213.28C502.486 213.202 502.422 213.108 502.379 213.004C502.335 212.9 502.312 212.788 502.313 212.676C502.313 212.446 502.404 212.227 502.565 212.065C502.727 211.903 502.947 211.812 503.176 211.812H599.955C600.184 211.812 600.404 211.903 600.566 212.065C600.728 212.227 600.819 212.446 600.819 212.676C600.819 212.788 600.796 212.9 600.753 213.004C600.709 213.108 600.645 213.202 600.565 213.28C600.484 213.359 600.389 213.421 600.284 213.463C600.179 213.504 600.068 213.524 599.955 213.522Z" fill="white"/>
<path d="M599.955 227.17H503.176C502.942 227.17 502.718 227.077 502.553 226.912C502.388 226.747 502.295 226.522 502.295 226.289C502.295 226.055 502.388 225.83 502.553 225.665C502.718 225.5 502.942 225.407 503.176 225.407H599.955C600.189 225.407 600.413 225.5 600.578 225.665C600.743 225.83 600.836 226.055 600.836 226.289C600.836 226.522 600.743 226.747 600.578 226.912C600.413 227.077 600.189 227.17 599.955 227.17Z" fill="white"/>
<path d="M599.955 240.818H503.176C502.947 240.818 502.727 240.727 502.565 240.565C502.404 240.403 502.313 240.184 502.313 239.954C502.312 239.842 502.335 239.73 502.379 239.626C502.422 239.522 502.486 239.428 502.566 239.35C502.647 239.271 502.742 239.209 502.847 239.167C502.952 239.126 503.064 239.106 503.176 239.108H599.955C600.068 239.106 600.179 239.126 600.284 239.167C600.389 239.209 600.484 239.271 600.565 239.35C600.645 239.428 600.709 239.522 600.753 239.626C600.796 239.73 600.819 239.842 600.819 239.954C600.819 240.184 600.728 240.403 600.566 240.565C600.404 240.727 600.184 240.818 599.955 240.818Z" fill="white"/>
<path d="M599.955 254.467H503.176C502.942 254.467 502.718 254.374 502.553 254.208C502.388 254.043 502.295 253.819 502.295 253.585C502.295 253.351 502.388 253.127 502.553 252.962C502.718 252.796 502.942 252.703 503.176 252.703H599.955C600.189 252.703 600.413 252.796 600.578 252.962C600.743 253.127 600.836 253.351 600.836 253.585C600.836 253.819 600.743 254.043 600.578 254.208C600.413 254.374 600.189 254.467 599.955 254.467Z" fill="white"/>
<path d="M599.955 339.001H503.176C502.942 339.001 502.718 338.908 502.553 338.743C502.388 338.577 502.295 338.353 502.295 338.119C502.295 337.885 502.388 337.661 502.553 337.496C502.718 337.33 502.942 337.237 503.176 337.237H599.955C600.189 337.237 600.413 337.33 600.578 337.496C600.743 337.661 600.836 337.885 600.836 338.119C600.836 338.353 600.743 338.577 600.578 338.743C600.413 338.908 600.189 339.001 599.955 339.001Z" fill="white"/>
<path d="M599.955 352.667H503.176C503.064 352.669 502.952 352.649 502.847 352.607C502.742 352.566 502.647 352.504 502.566 352.425C502.486 352.346 502.422 352.252 502.379 352.148C502.335 352.044 502.312 351.933 502.313 351.82C502.313 351.591 502.404 351.371 502.565 351.209C502.727 351.047 502.947 350.956 503.176 350.956H599.955C600.184 350.956 600.404 351.047 600.566 351.209C600.728 351.371 600.819 351.591 600.819 351.82C600.819 351.933 600.796 352.044 600.753 352.148C600.709 352.252 600.645 352.346 600.565 352.425C600.484 352.504 600.389 352.566 600.284 352.607C600.179 352.649 600.068 352.669 599.955 352.667Z" fill="white"/>
<path d="M581.925 80.8488C581.925 80.8488 584.093 71.609 582.083 66.3542C581.492 64.8724 580.447 63.6156 579.098 62.7637C577.75 61.9117 576.167 61.5082 574.575 61.6109C574.575 61.6109 559.981 58.3663 555.769 54.5575L557.673 61.2935C555.133 61.115 552.654 60.4379 550.376 59.3009C550.082 60.4524 550.102 61.6618 550.433 62.8031C550.765 63.9443 551.396 64.9758 552.262 65.79C551.211 66.2937 550.061 66.5552 548.895 66.5552C547.73 66.5552 546.58 66.2937 545.529 65.79C545.529 65.79 549.53 75.6117 558.836 74.6066C564.899 73.7073 575.633 82.8767 581.925 80.8488Z" fill="white"/>
<path d="M579.863 82.0126C576.531 82.0126 572.636 80.2493 568.829 78.486C565.022 76.7226 561.444 74.9593 558.889 75.3296C549.036 76.4758 544.789 66.1779 544.683 66.0721C544.62 65.9059 544.61 65.7242 544.654 65.552C544.698 65.3797 544.793 65.2252 544.928 65.1095C545.063 64.9938 545.231 64.9225 545.407 64.9055C545.584 64.8884 545.762 64.9263 545.917 65.0141C547.383 65.78 549.09 65.9444 550.676 65.4726C550.033 64.5624 549.594 63.5237 549.39 62.4279C549.186 61.3322 549.222 60.2052 549.495 59.1246C549.523 59.004 549.579 58.8917 549.659 58.7968C549.738 58.7019 549.839 58.6269 549.953 58.5779C550.067 58.5299 550.19 58.5052 550.314 58.5052C550.438 58.5052 550.561 58.5299 550.676 58.5779C552.514 59.4243 554.459 60.0174 556.457 60.3413L554.888 54.8044C554.839 54.6243 554.849 54.4335 554.915 54.2592C554.982 54.0849 555.102 53.9363 555.258 53.8346C555.416 53.7375 555.602 53.6952 555.787 53.7144C555.972 53.7335 556.145 53.8129 556.28 53.9404C560.087 57.467 573.183 60.4471 574.593 60.7821C576.356 60.6666 578.111 61.1175 579.601 62.069C581.091 63.0204 582.238 64.4229 582.876 66.0721C584.974 71.5032 582.876 80.6725 582.753 81.0604C582.725 81.2028 582.66 81.3351 582.564 81.4436C582.468 81.5522 582.345 81.633 582.207 81.6776C581.448 81.9144 580.657 82.0275 579.863 82.0126ZM559.488 73.5134C562.379 73.5134 565.868 75.1533 569.552 76.8637C573.764 78.8386 578.118 80.8665 581.202 80.1611C581.607 78.2215 582.965 70.9389 581.29 66.6716C580.763 65.3472 579.828 64.225 578.62 63.4674C577.413 62.7097 575.996 62.356 574.575 62.4573H574.311C573.782 62.3338 562.802 59.8828 557.162 56.6206L558.413 61.0466C558.448 61.1754 558.454 61.3106 558.43 61.4419C558.405 61.5733 558.351 61.6974 558.272 61.8048C558.191 61.9097 558.086 61.9945 557.967 62.0526C557.848 62.1107 557.717 62.1406 557.584 62.1399C555.296 62.0036 553.051 61.454 550.958 60.5176C550.856 61.3702 550.963 62.2348 551.27 63.0366C551.577 63.8385 552.075 64.5535 552.72 65.1199C552.826 65.2137 552.909 65.3313 552.961 65.4631C553.013 65.5948 553.033 65.7371 553.02 65.8781C553.005 66.0216 552.954 66.1588 552.871 66.2763C552.787 66.3938 552.674 66.4876 552.544 66.5482C550.888 67.2945 549.05 67.5397 547.256 67.2535C548.878 69.8985 552.544 74.3069 558.695 73.5839C558.957 73.5422 559.222 73.5187 559.488 73.5134Z" fill="#414141"/>
<path d="M594.244 158.171C594.244 158.171 606.97 130.328 605.419 112.077C603.868 93.827 591.918 92.6808 587.794 92.4516C583.669 92.2223 561.691 89.2599 553.672 99.0817C545.652 108.903 547.732 156.214 547.732 156.214L594.244 158.171Z" fill="#68E1FD"/>
<path d="M546.798 146.85C537.439 151.134 528.499 156.281 520.096 162.227C512.658 167.27 508.446 220.505 508.446 220.505C508.446 220.505 509.979 229.057 519.867 227.717L545.899 168.416C545.899 168.416 555.187 146.621 546.798 146.85Z" fill="#414141"/>
<path d="M517.84 228.669C515.46 228.73 513.133 227.956 511.263 226.481C509.393 225.006 508.097 222.923 507.6 220.593C507.591 220.523 507.591 220.452 507.6 220.381C508.041 214.88 512.077 166.6 519.62 161.468C528.086 155.514 537.083 150.354 546.498 146.057C546.597 146.031 546.7 146.031 546.798 146.057C547.457 146.007 548.118 146.13 548.715 146.415C549.311 146.7 549.823 147.135 550.2 147.679C553.496 152.528 547.415 167.076 546.675 168.839L520.642 228.158C520.583 228.291 520.49 228.406 520.372 228.493C520.255 228.579 520.117 228.634 519.973 228.651C519.263 228.706 518.551 228.712 517.84 228.669ZM509.363 220.417C509.556 221.334 511.248 227.735 519.338 226.888L545.177 168.046C546.939 163.814 551.169 152.035 548.825 148.649C548.63 148.364 548.366 148.134 548.058 147.979C547.75 147.825 547.407 147.752 547.062 147.767C537.82 152.045 528.973 157.131 520.625 162.967C514.773 166.829 510.491 205.605 509.363 220.417Z" fill="#414141"/>
<path d="M595.284 152.317C595.284 152.317 557.902 153.392 549.107 152.105C549.107 152.105 548.613 152.211 542.163 164.096C535.712 175.981 544.983 230.309 544.983 230.309C544.983 230.309 553.478 239.302 560.193 238.015L568.142 176.069C568.142 176.069 581.696 176.474 589.292 171.079C594.509 167.287 594.28 159.194 595.284 152.317Z" fill="#414141"/>
<path d="M558.818 239.002C552.085 239.002 544.718 231.244 544.348 230.891C544.233 230.77 544.159 230.616 544.137 230.45C543.749 228.228 534.883 175.787 541.405 163.69C547.926 151.594 548.455 151.347 548.931 151.347H549.23C557.849 152.634 594.897 151.576 595.267 151.559C595.393 151.551 595.52 151.572 595.637 151.621C595.753 151.67 595.858 151.745 595.941 151.84C596.024 151.935 596.085 152.049 596.118 152.171C596.15 152.293 596.155 152.422 596.13 152.546C595.954 153.816 595.795 155.138 595.654 156.461C595.002 162.421 594.333 168.575 589.715 171.89C583.017 176.686 571.949 177.039 568.9 177.039L561.039 238.05C561.017 238.23 560.938 238.398 560.815 238.531C560.691 238.664 560.529 238.755 560.352 238.791C559.848 238.907 559.335 238.977 558.818 239.002ZM545.776 229.903C546.957 231.103 553.848 237.768 559.417 237.257L567.296 175.963C567.318 175.749 567.423 175.553 567.587 175.415C567.751 175.276 567.963 175.208 568.177 175.222C568.318 175.222 581.519 175.54 588.728 170.391C592.711 167.517 593.346 161.751 594.015 156.161C594.121 155.173 594.227 154.168 594.35 153.198C588.322 153.357 558.272 154.098 549.53 153.004C549.019 153.745 547.45 156.231 542.956 164.501C536.893 175.593 545.088 225.795 545.776 229.903Z" fill="#414141"/>
<path d="M553.654 99.0817C553.654 99.0817 547.732 110.49 544.242 116.345C540.905 121.368 537.199 126.136 533.156 130.61C533.156 130.61 506.278 140.167 506.12 140.679C505.961 141.19 508.658 150.236 508.658 150.236C508.658 150.236 536.858 148.208 541.511 146.004C546.164 143.8 555.611 132.955 555.611 132.955L553.654 99.0817Z" fill="#68E1FD"/>
<path d="M564.599 92.9629L566.203 102.697C567.205 104.141 568.7 105.171 570.406 105.593C572.113 106.015 573.914 105.8 575.474 104.989C581.625 102.273 581.625 97.6181 581.625 97.6181L578.347 79.6321C578.347 79.6321 572.672 77.428 569.728 66.3542C569.728 66.3542 555.628 67.4299 556.598 72.7022C556.598 72.7022 556.421 82.6298 557.919 87.4613C558.457 88.8813 559.356 90.136 560.528 91.101C561.7 92.0661 563.103 92.7079 564.599 92.9629Z" fill="white"/>
<path d="M572.019 106.646C570.731 106.606 569.469 106.266 568.335 105.654C567.2 105.042 566.223 104.174 565.481 103.12C565.424 103.02 565.383 102.914 565.357 102.802L563.841 93.6154C562.294 93.3061 560.855 92.5962 559.667 91.5566C558.48 90.517 557.585 89.184 557.073 87.6906C555.54 82.7709 555.699 73.0549 555.699 72.6494C555.631 72.1649 555.666 71.6717 555.799 71.2012C555.933 70.7306 556.163 70.293 556.474 69.9162C559.241 66.3895 568.565 65.5431 569.622 65.4726C569.823 65.4573 570.022 65.5124 570.186 65.6282C570.35 65.7441 570.469 65.9135 570.521 66.1074C573.288 76.5287 578.576 78.7857 578.629 78.8034C578.764 78.8552 578.883 78.9407 578.976 79.0518C579.068 79.163 579.131 79.296 579.158 79.4382L582.436 97.4242C582.436 97.7945 582.436 102.873 575.826 105.747C574.634 106.309 573.337 106.615 572.019 106.646ZM567.014 102.362C567.922 103.593 569.241 104.458 570.733 104.798C572.224 105.138 573.788 104.93 575.139 104.213C580.603 101.815 580.744 97.7768 580.744 97.6005L577.554 80.2141C576.108 79.4558 571.667 76.4053 569.058 67.2712C565.992 67.5886 559.629 68.6818 557.814 71.0094C557.637 71.2191 557.508 71.4655 557.438 71.7308C557.368 71.9962 557.358 72.2738 557.408 72.5435C557.408 72.808 557.267 82.5593 558.713 87.2145C559.177 88.4846 559.973 89.6074 561.017 90.4662C562.062 91.3251 563.317 91.8888 564.652 92.0989L565.005 92.2047C565.119 92.2693 565.217 92.3579 565.293 92.4646C565.369 92.5712 565.421 92.6931 565.445 92.8219L567.014 102.362Z" fill="#414141"/>
<path d="M574.575 79.9848C574.644 79.0739 575.002 78.209 575.597 77.5161C576.181 76.8932 576.866 76.3744 577.624 75.982C578.019 75.731 578.464 75.5686 578.928 75.5059C579.26 75.503 579.589 75.5628 579.898 75.6823C580.619 75.9078 581.242 76.3747 581.66 77.0048C581.935 77.5514 582.074 78.1563 582.066 78.7681C582.115 79.4473 582.068 80.1301 581.925 80.7959C581.772 81.4574 581.489 82.0819 581.093 82.6329C580.696 83.1839 580.194 83.6504 579.616 84.0052C578.445 84.7058 577.05 84.9269 575.721 84.6224" fill="white"/>
<path d="M576.919 85.6804C576.444 85.6749 575.971 85.6158 575.509 85.5041C575.287 85.4497 575.096 85.3098 574.977 85.1149C574.858 84.9199 574.822 84.6858 574.875 84.4637C574.901 84.3542 574.95 84.2512 575.017 84.1607C575.084 84.0701 575.168 83.9939 575.265 83.9364C575.362 83.8789 575.469 83.8413 575.581 83.8259C575.692 83.8105 575.806 83.8175 575.915 83.8465C577.027 84.0977 578.193 83.9148 579.175 83.3351C580.141 82.7268 580.83 81.7649 581.096 80.6549C581.213 80.0748 581.254 79.4822 581.22 78.8916C581.235 78.404 581.132 77.9199 580.92 77.4809C580.595 77.0088 580.115 76.6656 579.563 76.511C579.357 76.4456 579.144 76.4041 578.928 76.3876C578.593 76.449 578.274 76.5812 577.994 76.7755C577.335 77.1117 576.739 77.5591 576.232 78.098C575.75 78.6482 575.465 79.3429 575.421 80.073C575.403 80.3006 575.297 80.5123 575.126 80.6636C574.955 80.8149 574.732 80.894 574.504 80.8841C574.392 80.8775 574.281 80.8483 574.18 80.7983C574.079 80.7483 573.989 80.6785 573.915 80.593C573.841 80.5076 573.785 80.4082 573.75 80.3007C573.715 80.1932 573.702 80.0798 573.711 79.9672C573.788 78.8693 574.214 77.8249 574.928 76.9871C575.568 76.269 576.332 75.6718 577.184 75.2238C577.718 74.8928 578.321 74.6877 578.946 74.6243C579.391 74.6231 579.832 74.7008 580.25 74.8535C581.2 75.1389 582.011 75.7674 582.524 76.6168C582.877 77.2975 583.058 78.0542 583.053 78.821C583.097 79.5771 583.044 80.3357 582.894 81.0781C582.581 82.3964 581.834 83.5708 580.772 84.4122C579.711 85.2535 578.397 85.7127 577.042 85.7156L576.919 85.6804Z" fill="#414141"/>
<path d="M565.657 77.3751C565.657 77.3751 563.013 82.8767 563.894 83.6349C564.776 84.3931 566.979 83.4938 566.979 83.4938" fill="white"/>
<path d="M565.022 84.7811C564.441 84.8102 563.867 84.6356 563.401 84.2873C563.031 83.9876 561.956 83.1059 564.899 77.0048C564.998 76.8042 565.171 76.65 565.381 76.5743C565.591 76.4987 565.823 76.5076 566.027 76.5992C566.13 76.6464 566.222 76.7139 566.299 76.7976C566.375 76.8813 566.434 76.9795 566.472 77.0864C566.51 77.1933 566.526 77.3067 566.519 77.4199C566.512 77.5331 566.483 77.6438 566.432 77.7454C565.576 79.4072 564.981 81.1916 564.67 83.0354C565.381 83.1207 566.101 83.0046 566.75 82.7003C566.96 82.6169 567.195 82.6179 567.405 82.7033C567.615 82.7887 567.785 82.9519 567.878 83.1588C567.921 83.2641 567.942 83.3769 567.942 83.4908C567.941 83.6046 567.918 83.7171 567.874 83.822C567.83 83.9269 567.765 84.022 567.684 84.1018C567.603 84.1817 567.507 84.2447 567.402 84.2873C566.645 84.5938 565.839 84.7611 565.022 84.7811Z" fill="#414141"/>
<path d="M570.007 77.1465C570.471 77.0993 570.795 76.5347 570.729 75.8856C570.663 75.2364 570.233 74.7485 569.768 74.7958C569.303 74.843 568.98 75.4075 569.045 76.0567C569.111 76.7058 569.542 77.1938 570.007 77.1465Z" fill="#414141"/>
<path d="M562.87 78.4045C563.335 78.3605 563.663 77.7983 563.601 77.1487C563.54 76.4991 563.113 76.0082 562.648 76.0522C562.183 76.0961 561.855 76.6584 561.917 77.308C561.978 77.9576 562.405 78.4485 562.87 78.4045Z" fill="#414141"/>
<path d="M566.432 89.1012C564.818 89.0671 563.223 88.7384 561.726 88.1314C561.622 88.0874 561.528 88.023 561.45 87.942C561.371 87.8611 561.309 87.7652 561.268 87.66C561.227 87.5549 561.208 87.4425 561.211 87.3297C561.214 87.2168 561.239 87.1057 561.286 87.0029C561.382 86.7991 561.552 86.6399 561.762 86.5579C561.972 86.4759 562.205 86.4774 562.414 86.562C562.414 86.562 566.415 88.3254 569.111 86.7913C569.817 86.3328 570.408 85.7169 570.836 84.9918C571.264 84.2667 571.518 83.4522 571.579 82.6122C571.616 82.3783 571.745 82.1689 571.937 82.0301C572.128 81.8912 572.367 81.8342 572.601 81.8716C572.835 81.909 573.044 82.0378 573.183 82.2296C573.322 82.4214 573.379 82.6605 573.341 82.8943C573.244 83.993 572.89 85.0535 572.308 85.9906C571.727 86.9278 570.933 87.7153 569.992 88.2901C568.898 88.8686 567.67 89.1484 566.432 89.1012Z" fill="#414141"/>
<path d="M564.599 92.9629C564.599 92.9629 570.874 93.3509 574.117 90.7235C574.117 90.7235 571.508 99.5402 565.71 99.5402L564.599 92.9629Z" fill="#414141"/>
<path d="M565.763 100.51C565.56 100.512 565.364 100.439 565.211 100.306C565.059 100.173 564.96 99.988 564.934 99.787L563.824 93.1216C563.799 92.993 563.806 92.8604 563.843 92.7347C563.879 92.6091 563.945 92.4939 564.035 92.3987C564.121 92.3024 564.227 92.227 564.346 92.1781C564.465 92.1292 564.594 92.1081 564.723 92.1165C564.723 92.1165 570.715 92.4516 573.641 90.0711C573.785 89.961 573.959 89.8989 574.14 89.8936C574.321 89.8882 574.499 89.9398 574.649 90.0412C574.799 90.1425 574.913 90.2884 574.976 90.4583C575.039 90.6282 575.046 90.8135 574.998 90.988C574.892 91.3583 572.16 100.404 565.78 100.51H565.763ZM565.763 93.8622L566.573 98.729C569.57 98.2177 571.561 94.9379 572.601 92.6808C570.359 93.4909 567.988 93.8853 565.604 93.8446L565.763 93.8622Z" fill="#414141"/>
<path d="M599.461 96.9833C604.485 97.865 624.806 144.875 617.844 150.236C606.987 158.612 569.199 150.236 569.199 150.236L572.284 135.653C572.284 135.653 596.571 136.341 596.959 131.351C597.347 126.36 582.859 103.261 584.727 99.8046C586.595 96.3485 599.461 96.9833 599.461 96.9833Z" fill="#68E1FD"/>
<path d="M574.892 140.379C570.859 140.636 566.809 140.441 562.819 139.797C559.866 139.079 556.834 138.73 553.795 138.757C549.791 138.947 545.852 139.849 542.163 141.419C542.006 141.469 541.866 141.56 541.757 141.684C541.405 142.178 542.251 142.671 542.868 142.689C544.469 142.72 546.066 142.518 547.609 142.089C543.79 143.501 540.179 145.423 536.875 147.803C536.487 148.067 536.082 148.49 536.258 148.913C536.435 149.337 537.21 149.266 537.703 149.037L546.375 145.069C544.125 145.972 542.041 147.241 540.206 148.825C539.959 149.055 539.66 149.354 539.748 149.689C539.836 150.024 540.735 150.165 541.281 149.901C543.923 148.579 546.447 147.034 548.825 145.281L543.537 149.407C543.537 149.83 543.943 150.201 544.383 150.218C544.825 150.191 545.251 150.044 545.617 149.795L551.592 146.268L547.873 148.878C547.274 149.284 546.604 149.954 546.904 150.642C547.203 151.329 548.384 151.171 549.16 150.836C552.225 149.506 555.429 148.524 558.712 147.908C559.857 147.535 561.039 147.293 562.237 147.185C564.084 147.429 565.906 147.83 567.684 148.385C570.398 148.984 573.094 149.601 575.791 150.148" fill="white"/>
<path d="M547.767 151.964C547.509 151.969 547.253 151.927 547.009 151.841C546.81 151.768 546.628 151.655 546.473 151.51C546.319 151.364 546.195 151.189 546.111 150.994C546.033 150.822 545.991 150.636 545.987 150.448C545.501 150.79 544.925 150.98 544.33 150.994C544.091 150.982 543.856 150.921 543.641 150.815C543.426 150.709 543.235 150.56 543.079 150.377C542.98 150.259 542.897 150.129 542.832 149.989C542.462 150.201 542.074 150.395 541.687 150.589C541.393 150.751 541.067 150.847 540.733 150.872C540.398 150.896 540.062 150.848 539.748 150.73C539.568 150.645 539.411 150.52 539.289 150.364C539.166 150.208 539.082 150.025 539.043 149.83C539.008 149.656 539.008 149.476 539.043 149.301L538.091 149.742C537.549 150.028 536.917 150.091 536.329 149.919C536.163 149.859 536.012 149.765 535.884 149.644C535.757 149.522 535.656 149.376 535.588 149.213C535.43 148.878 535.236 148.014 536.452 147.15C538.397 145.747 540.447 144.497 542.586 143.412C542.273 143.377 541.973 143.271 541.708 143.103C541.442 142.935 541.218 142.709 541.052 142.442C540.956 142.246 540.915 142.028 540.933 141.81C540.952 141.593 541.03 141.384 541.158 141.208C541.344 140.967 541.595 140.784 541.881 140.679C545.659 139.07 549.694 138.151 553.795 137.963C556.517 137.899 559.235 138.183 561.885 138.81L562.995 139.004C566.933 139.638 570.929 139.833 574.91 139.585C575.114 139.585 575.311 139.664 575.459 139.805C575.606 139.947 575.694 140.139 575.703 140.344C575.703 140.55 575.625 140.749 575.485 140.899C575.344 141.05 575.151 141.141 574.945 141.155C570.852 141.395 566.746 141.194 562.696 140.555L561.568 140.344C559.038 139.751 556.445 139.473 553.848 139.515C550.141 139.702 546.491 140.501 543.044 141.878C544.521 141.91 545.994 141.72 547.415 141.314C547.611 141.248 547.825 141.263 548.011 141.356C548.196 141.448 548.336 141.611 548.402 141.807C548.467 142.004 548.452 142.218 548.36 142.403C548.267 142.588 548.105 142.729 547.908 142.795C544.239 144.148 540.761 145.974 537.562 148.226L544.031 145.263C544.701 144.928 545.37 144.611 546.058 144.346C546.247 144.265 546.461 144.261 546.653 144.337C546.845 144.414 546.998 144.563 547.08 144.752C547.162 144.941 547.165 145.156 547.089 145.347C547.013 145.539 546.864 145.693 546.675 145.775L544.718 146.674C543.403 147.36 542.162 148.182 541.017 149.125C543.595 147.834 546.055 146.318 548.367 144.593C548.449 144.531 548.542 144.486 548.641 144.461C548.741 144.435 548.845 144.429 548.946 144.444C549.048 144.459 549.146 144.494 549.234 144.547C549.322 144.599 549.398 144.669 549.459 144.752C549.522 144.833 549.569 144.925 549.596 145.024C549.623 145.123 549.63 145.226 549.617 145.328C549.604 145.43 549.57 145.528 549.519 145.617C549.468 145.705 549.4 145.783 549.318 145.845L545.053 149.09H545.159L551.134 145.563C551.307 145.485 551.503 145.472 551.686 145.526C551.868 145.58 552.025 145.698 552.128 145.859C552.23 146.019 552.272 146.211 552.245 146.4C552.218 146.588 552.123 146.761 551.98 146.886L548.243 149.495C547.644 149.919 547.521 150.236 547.538 150.271C547.962 150.354 548.4 150.279 548.772 150.06C551.899 148.701 555.168 147.695 558.519 147.062L559.647 146.762C560.484 146.493 561.358 146.356 562.237 146.357C563.585 146.462 564.915 146.723 566.203 147.133C566.767 147.291 567.313 147.45 567.842 147.556L575.95 149.425C576.049 149.448 576.143 149.491 576.226 149.55C576.309 149.61 576.38 149.685 576.434 149.772C576.488 149.858 576.524 149.955 576.541 150.056C576.558 150.157 576.554 150.26 576.531 150.359C576.508 150.459 576.466 150.553 576.406 150.636C576.347 150.719 576.271 150.79 576.185 150.844C576.098 150.898 576.001 150.934 575.901 150.951C575.8 150.968 575.697 150.965 575.597 150.941C572.901 150.324 570.204 149.689 567.49 149.178C566.943 149.055 566.379 148.896 565.727 148.737C564.582 148.37 563.4 148.127 562.202 148.014C561.469 148.026 560.743 148.157 560.052 148.402C559.647 148.508 559.241 148.631 558.818 148.702C555.582 149.334 552.426 150.322 549.406 151.647C548.886 151.859 548.329 151.967 547.767 151.964Z" fill="#414141"/>
<path d="M556.263 103.208C554.923 104.566 551.557 125.937 550.323 136.024L556.263 103.208Z" fill="white"/>
<path d="M550.323 136.817H550.217C550.014 136.791 549.83 136.685 549.704 136.523C549.579 136.361 549.523 136.156 549.547 135.953C550.305 129.676 553.936 104.478 555.716 102.661C555.867 102.544 556.055 102.485 556.246 102.496C556.437 102.506 556.617 102.585 556.755 102.718C556.892 102.851 556.976 103.029 556.993 103.22C557.009 103.41 556.957 103.6 556.844 103.755C555.699 105.324 552.456 125.02 551.098 136.147C551.069 136.332 550.975 136.501 550.833 136.624C550.691 136.747 550.511 136.815 550.323 136.817Z" fill="#414141"/>
<path d="M505.573 156.143L506.172 160.146L561.48 168.222L560.546 164.096L505.573 156.143Z" fill="white"/>
<path d="M561.48 169.086H561.356L506.049 160.992C505.867 160.964 505.699 160.879 505.569 160.749C505.439 160.619 505.354 160.451 505.326 160.269L504.727 156.267C504.702 156.134 504.71 155.997 504.75 155.868C504.79 155.739 504.861 155.621 504.956 155.526C505.055 155.434 505.172 155.364 505.299 155.322C505.427 155.279 505.563 155.264 505.697 155.279L560.669 163.249C560.839 163.274 560.997 163.349 561.123 163.466C561.249 163.582 561.336 163.734 561.374 163.902L562.238 168.046C562.273 168.178 562.275 168.317 562.241 168.45C562.207 168.583 562.139 168.705 562.044 168.804C561.899 168.967 561.697 169.068 561.48 169.086ZM506.842 159.388L560.299 167.199L559.77 164.854L506.507 157.148L506.842 159.388Z" fill="#414141"/>
<path d="M505.573 156.143C505.573 156.143 518.157 145.334 518.58 145.44C519.003 145.546 575.562 152.317 575.562 152.317L560.475 164.096L505.573 156.143Z" fill="white"/>
<path d="M560.475 164.96L505.45 156.937C505.286 156.911 505.133 156.839 505.008 156.73C504.884 156.62 504.792 156.478 504.745 156.32C504.697 156.163 504.696 155.996 504.743 155.839C504.79 155.682 504.883 155.542 505.009 155.438C517.946 144.329 518.228 144.417 518.774 144.54C519.62 144.682 556.368 149.09 575.668 151.4C575.838 151.422 575.997 151.494 576.126 151.607C576.254 151.72 576.346 151.869 576.39 152.035C576.441 152.197 576.439 152.371 576.386 152.533C576.332 152.694 576.229 152.834 576.091 152.934L561.074 164.713C560.995 164.792 560.902 164.854 560.799 164.896C560.696 164.938 560.586 164.96 560.475 164.96ZM507.6 155.561L560.334 163.197L573.447 152.916C556.421 150.871 522.581 146.815 518.809 146.321C517.54 147.115 511.812 151.929 507.6 155.561Z" fill="#414141"/>
<path d="M561.48 168.222L575.915 156.143L575.562 152.317L560.546 164.096L561.48 168.222Z" fill="white"/>
<path d="M561.48 169.086C561.392 169.103 561.303 169.103 561.215 169.086C561.074 169.044 560.947 168.965 560.848 168.856C560.748 168.747 560.68 168.613 560.651 168.469L559.717 164.343C559.677 164.185 559.684 164.019 559.737 163.866C559.79 163.712 559.888 163.577 560.017 163.479L575.033 151.647C575.155 151.551 575.301 151.49 575.455 151.47C575.608 151.45 575.765 151.472 575.907 151.533C576.05 151.595 576.173 151.693 576.264 151.819C576.355 151.944 576.411 152.092 576.426 152.246L576.76 156.073C576.775 156.211 576.756 156.351 576.704 156.481C576.651 156.61 576.568 156.724 576.461 156.813L562.026 168.91C561.868 169.027 561.676 169.089 561.48 169.086ZM561.48 164.431L561.991 166.67L574.998 155.773L574.839 154.01L561.48 164.431Z" fill="#414141"/>
<path d="M505.573 156.143L494.945 120.506L553.249 130.451L560.546 164.096L505.573 156.143Z" fill="white"/>
<path d="M560.475 164.96L505.45 156.937C505.285 156.915 505.129 156.844 505.004 156.735C504.879 156.625 504.788 156.48 504.745 156.32L494.17 120.7C494.129 120.56 494.125 120.412 494.157 120.27C494.189 120.127 494.256 119.995 494.353 119.886C494.45 119.777 494.573 119.694 494.71 119.645C494.848 119.596 494.995 119.583 495.139 119.607L553.425 129.605C553.592 129.633 553.746 129.71 553.869 129.826C553.991 129.942 554.076 130.092 554.112 130.257L561.374 163.99C561.406 164.124 561.403 164.264 561.366 164.397C561.329 164.529 561.259 164.65 561.162 164.748C561.07 164.832 560.961 164.894 560.842 164.931C560.723 164.967 560.598 164.977 560.475 164.96ZM506.155 155.367L559.382 163.073L552.526 131.192L496.126 121.582L506.155 155.367Z" fill="#414141"/>
<path d="M587.582 155.314H587.441L575.65 153.287C575.454 153.251 575.275 153.149 575.144 152.999C575.013 152.848 574.936 152.657 574.928 152.458L574.557 138.351C574.548 138.134 574.624 137.922 574.769 137.76C574.914 137.599 575.116 137.501 575.333 137.487L596.183 135.336L586.913 103.437C586.852 103.22 586.879 102.987 586.988 102.79C587.097 102.592 587.278 102.445 587.494 102.379C587.603 102.347 587.717 102.336 587.83 102.348C587.943 102.359 588.052 102.393 588.152 102.447C588.252 102.501 588.34 102.574 588.412 102.662C588.484 102.751 588.537 102.852 588.569 102.961L598.104 135.777C598.14 135.895 598.15 136.019 598.131 136.141C598.113 136.263 598.068 136.38 597.999 136.482C597.929 136.586 597.838 136.674 597.731 136.741C597.625 136.808 597.506 136.852 597.382 136.87L576.232 139.039L576.584 151.682L587.688 153.586C587.804 153.597 587.916 153.63 588.019 153.684C588.122 153.738 588.213 153.811 588.288 153.901C588.362 153.99 588.419 154.093 588.453 154.204C588.488 154.315 588.5 154.432 588.49 154.547C588.48 154.663 588.446 154.776 588.393 154.879C588.339 154.982 588.265 155.073 588.176 155.148C588.087 155.222 587.984 155.278 587.873 155.313C587.762 155.348 587.645 155.36 587.529 155.35L587.582 155.314Z" fill="#414141"/>
<path d="M510.226 211C509.254 210.102 508.237 209.254 507.177 208.461C504.886 206.698 499.968 204.212 498.558 208.267C497.677 210.771 499.034 214.104 499.968 216.414C501.813 220.832 504.626 224.779 508.199 227.964C511.319 230.785 521.259 234.858 520.537 226.994C520.345 225.571 519.891 224.195 519.197 222.938C516.955 218.448 513.915 214.403 510.226 211Z" fill="white"/>
<path d="M516.871 232.354C513.486 232.08 510.274 230.748 507.688 228.546C504.025 225.283 501.14 221.24 499.246 216.714C498.294 214.351 496.849 210.806 497.818 208.003C497.991 207.415 498.305 206.878 498.732 206.439C499.158 206 499.686 205.671 500.268 205.481C503.141 204.617 506.93 207.245 507.653 207.844C508.73 208.649 509.766 209.508 510.755 210.419C514.525 213.882 517.631 218.005 519.92 222.586C520.655 223.931 521.133 225.402 521.33 226.923C521.612 229.992 520.343 231.314 519.215 231.861C518.484 232.21 517.68 232.379 516.871 232.354ZM501.502 206.874C501.239 206.871 500.978 206.907 500.726 206.98C500.376 207.096 500.061 207.299 499.811 207.571C499.561 207.842 499.385 208.173 499.299 208.532C498.523 210.754 499.827 213.98 500.691 216.114C502.493 220.425 505.24 224.275 508.728 227.382C510.949 229.41 516.166 231.649 518.528 230.468C519.532 229.956 519.938 228.845 519.779 227.064C519.586 225.74 519.157 224.462 518.51 223.291C516.323 218.875 513.335 214.905 509.697 211.582C508.746 210.701 507.741 209.819 506.719 209.096C505.228 207.871 503.417 207.1 501.502 206.874Z" fill="#414141"/>
<path d="M543.802 215.391C543.123 214.916 542.302 214.686 541.475 214.739C540.957 214.862 540.482 215.124 540.101 215.497C539.39 216.229 538.854 217.112 538.53 218.079C538.207 219.047 538.105 220.075 538.232 221.087C538.486 223.107 539.113 225.063 540.083 226.853C542.78 232.46 546.428 237.891 551.839 240.959C552.81 241.536 553.87 241.947 554.976 242.176C564.599 243.94 560.616 234.382 558.254 230.062C554.907 223.913 549.899 218.829 543.802 215.391Z" fill="white"/>
<path d="M557.038 243.128C556.299 243.121 555.562 243.051 554.835 242.917C553.648 242.673 552.51 242.232 551.469 241.612C546.71 238.932 542.762 234.224 539.378 227.206C538.376 225.321 537.719 223.273 537.439 221.157C537.299 220.026 537.418 218.877 537.788 217.799C538.157 216.72 538.767 215.74 539.572 214.933C540.055 214.451 540.667 214.121 541.334 213.98C542.335 213.885 543.338 214.141 544.172 214.703C550.386 218.213 555.5 223.385 558.942 229.639C560.704 232.778 563.224 238.456 561.109 241.436C560.623 242.031 559.996 242.498 559.286 242.793C558.576 243.088 557.804 243.203 557.038 243.128ZM541.81 215.497H541.599C541.23 215.593 540.895 215.788 540.629 216.061C540.003 216.708 539.531 217.488 539.25 218.343C538.969 219.198 538.887 220.106 539.008 220.999C539.247 222.926 539.844 224.793 540.77 226.5C543.996 233.236 547.82 237.715 552.191 240.219C553.083 240.759 554.061 241.14 555.082 241.347C557.496 241.788 559.083 241.488 559.788 240.501C561.162 238.579 559.523 234.012 557.532 230.379C554.254 224.388 549.371 219.43 543.432 216.061C542.944 215.746 542.388 215.553 541.81 215.497Z" fill="#414141"/>
<path d="M539.942 185.15C539.729 185.151 539.524 185.071 539.367 184.928C539.211 184.784 539.114 184.586 539.096 184.374C539.096 183.986 538.126 174.517 539.748 169.121C539.779 169.014 539.831 168.913 539.901 168.826C539.971 168.738 540.058 168.665 540.156 168.611C540.254 168.557 540.362 168.523 540.474 168.511C540.585 168.498 540.698 168.508 540.806 168.539C540.913 168.571 541.014 168.623 541.101 168.693C541.188 168.763 541.261 168.85 541.315 168.948C541.369 169.046 541.404 169.154 541.416 169.266C541.428 169.377 541.418 169.49 541.387 169.597C539.871 174.676 540.77 184.127 540.788 184.215C540.808 184.442 540.737 184.667 540.592 184.842C540.447 185.017 540.239 185.128 540.012 185.15H539.942Z" fill="white"/>
<path d="M436.712 118.69H86.574C79.2248 118.69 73.2671 124.65 73.2671 132.003V372.363C73.2671 379.716 79.2248 385.676 86.574 385.676H436.712C444.061 385.676 450.019 379.716 450.019 372.363V132.003C450.019 124.65 444.061 118.69 436.712 118.69Z" fill="white"/>
<path d="M436.712 386.54H86.574C82.8416 386.517 79.2686 385.024 76.6293 382.383C73.9901 379.742 72.4971 376.168 72.474 372.434V132.003C72.474 128.262 73.9595 124.674 76.6038 122.028C79.2481 119.383 82.8344 117.896 86.574 117.896H436.712C440.452 117.896 444.038 119.383 446.682 122.028C449.327 124.674 450.812 128.262 450.812 132.003V372.381C450.819 374.238 450.46 376.078 449.754 377.795C449.049 379.513 448.011 381.074 446.701 382.39C445.391 383.705 443.835 384.749 442.12 385.461C440.406 386.174 438.568 386.54 436.712 386.54ZM86.574 119.554C83.2722 119.554 80.1054 120.865 77.7691 123.199C75.4327 125.533 74.1178 128.7 74.1131 132.003V372.381C74.1178 375.684 75.4327 378.85 77.7691 381.185C80.1054 383.519 83.2722 384.83 86.574 384.83H436.712C440.011 384.825 443.173 383.512 445.506 381.178C447.838 378.845 449.151 375.681 449.156 372.381V132.003C449.151 128.703 447.838 125.539 445.506 123.205C443.173 120.872 440.011 119.559 436.712 119.554H86.574Z" fill="#414141"/>
<path d="M436.078 153.216H87.1909V371.64H436.078V153.216Z" fill="#414141"/>
<path d="M436.078 372.522H87.1909C86.9572 372.522 86.733 372.429 86.5677 372.264C86.4025 372.098 86.3096 371.874 86.3096 371.64V153.216C86.3096 152.982 86.4025 152.758 86.5677 152.593C86.733 152.427 86.9572 152.334 87.1909 152.334H436.166C436.4 152.334 436.624 152.427 436.789 152.593C436.954 152.758 437.047 152.982 437.047 153.216V371.64C437.048 371.764 437.022 371.886 436.973 371.999C436.923 372.112 436.85 372.214 436.759 372.297C436.667 372.38 436.559 372.443 436.442 372.482C436.325 372.521 436.201 372.534 436.078 372.522ZM88.125 370.758H435.337V154.098H88.125V370.758Z" fill="#414141"/>
<path d="M436.078 132.726H87.1909V153.216H436.078V132.726Z" fill="#68E1FD"/>
<path d="M436.078 154.098H87.1909C86.9572 154.098 86.733 154.005 86.5677 153.839C86.4025 153.674 86.3096 153.45 86.3096 153.216V132.726C86.3096 132.492 86.4025 132.268 86.5677 132.103C86.733 131.937 86.9572 131.844 87.1909 131.844H436.166C436.4 131.844 436.624 131.937 436.789 132.103C436.954 132.268 437.047 132.492 437.047 132.726V153.216C437.048 153.34 437.022 153.462 436.973 153.575C436.923 153.688 436.85 153.79 436.759 153.873C436.667 153.956 436.559 154.019 436.442 154.058C436.325 154.096 436.201 154.11 436.078 154.098ZM88.125 152.334H435.337V133.608H88.125V152.334Z" fill="#68E1FD"/>
<path d="M157.145 174.958H127.182C127.069 174.96 126.958 174.94 126.853 174.899C126.748 174.857 126.653 174.795 126.572 174.716C126.492 174.638 126.428 174.543 126.384 174.44C126.341 174.336 126.318 174.224 126.318 174.112C126.318 173.882 126.409 173.663 126.571 173.501C126.733 173.339 126.953 173.247 127.182 173.247H157.145C157.257 173.247 157.369 173.27 157.472 173.314C157.576 173.357 157.67 173.421 157.749 173.502C157.828 173.582 157.89 173.677 157.931 173.782C157.973 173.887 157.993 173.999 157.991 174.112C157.993 174.223 157.973 174.334 157.931 174.438C157.889 174.542 157.827 174.636 157.748 174.715C157.669 174.794 157.575 174.857 157.471 174.898C157.367 174.94 157.256 174.96 157.145 174.958Z" fill="white"/>
<path d="M224.736 174.958H164.811C164.7 174.96 164.589 174.94 164.485 174.898C164.381 174.857 164.287 174.794 164.208 174.715C164.129 174.636 164.067 174.542 164.025 174.438C163.983 174.334 163.963 174.223 163.965 174.112C163.963 173.999 163.983 173.887 164.025 173.782C164.066 173.677 164.128 173.582 164.207 173.502C164.286 173.421 164.38 173.357 164.484 173.314C164.587 173.27 164.699 173.247 164.811 173.247H224.736C224.965 173.247 225.185 173.339 225.347 173.501C225.509 173.663 225.6 173.882 225.6 174.112C225.6 174.224 225.578 174.336 225.534 174.44C225.49 174.543 225.426 174.638 225.346 174.716C225.266 174.795 225.17 174.857 225.066 174.899C224.961 174.94 224.849 174.96 224.736 174.958Z" fill="#68E1FD"/>
<path d="M245.446 187.513H185.521C185.287 187.513 185.063 187.42 184.898 187.255C184.732 187.089 184.64 186.865 184.64 186.631C184.64 186.397 184.732 186.173 184.898 186.008C185.063 185.842 185.287 185.75 185.521 185.75H245.446C245.679 185.75 245.904 185.842 246.069 186.008C246.234 186.173 246.327 186.397 246.327 186.631C246.327 186.865 246.234 187.089 246.069 187.255C245.904 187.42 245.679 187.513 245.446 187.513Z" fill="#68E1FD"/>
<path d="M164.177 187.513H134.214C133.981 187.513 133.757 187.42 133.591 187.255C133.426 187.089 133.333 186.865 133.333 186.631C133.333 186.397 133.426 186.173 133.591 186.008C133.757 185.842 133.981 185.75 134.214 185.75H164.177C164.411 185.75 164.635 185.842 164.8 186.008C164.965 186.173 165.058 186.397 165.058 186.631C165.058 186.865 164.965 187.089 164.8 187.255C164.635 187.42 164.411 187.513 164.177 187.513Z" fill="white"/>
<path d="M171.227 200.05H141.264C141.035 200.05 140.816 199.959 140.654 199.797C140.492 199.635 140.401 199.415 140.401 199.186C140.401 199.073 140.423 198.962 140.467 198.858C140.51 198.754 140.574 198.66 140.655 198.581C140.735 198.502 140.831 198.441 140.935 198.399C141.04 198.358 141.152 198.337 141.264 198.34H171.227C171.339 198.337 171.45 198.358 171.553 198.399C171.657 198.441 171.751 198.503 171.83 198.582C171.909 198.661 171.972 198.756 172.013 198.859C172.055 198.963 172.075 199.074 172.073 199.186C172.075 199.299 172.055 199.411 172.014 199.515C171.972 199.62 171.91 199.716 171.831 199.796C171.753 199.877 171.659 199.94 171.555 199.984C171.451 200.028 171.339 200.05 171.227 200.05Z" fill="white"/>
<path d="M256.144 200.05H181.22C181.108 200.05 180.996 200.028 180.892 199.984C180.789 199.94 180.695 199.877 180.616 199.796C180.537 199.716 180.475 199.62 180.434 199.515C180.392 199.411 180.372 199.299 180.374 199.186C180.372 199.074 180.392 198.963 180.434 198.859C180.475 198.756 180.538 198.661 180.617 198.582C180.696 198.503 180.79 198.441 180.894 198.399C180.997 198.358 181.108 198.337 181.22 198.34H256.144C256.257 198.337 256.369 198.358 256.473 198.399C256.578 198.441 256.673 198.502 256.754 198.581C256.834 198.66 256.898 198.754 256.942 198.858C256.985 198.962 257.008 199.073 257.008 199.186C257.008 199.415 256.917 199.635 256.755 199.797C256.593 199.959 256.373 200.05 256.144 200.05Z" fill="#68E1FD"/>
<path d="M178.259 212.587H148.297C148.071 212.583 147.856 212.49 147.697 212.328C147.539 212.167 147.451 211.95 147.451 211.723C147.451 211.499 147.54 211.284 147.699 211.125C147.857 210.966 148.072 210.877 148.297 210.877H178.259C178.372 210.875 178.484 210.895 178.588 210.936C178.693 210.978 178.788 211.04 178.869 211.119C178.949 211.197 179.013 211.292 179.057 211.395C179.1 211.499 179.123 211.611 179.123 211.723C179.123 211.953 179.032 212.172 178.87 212.334C178.708 212.496 178.488 212.587 178.259 212.587Z" fill="white"/>
<path d="M271.636 212.587H182.56C182.331 212.587 182.111 212.496 181.949 212.334C181.787 212.172 181.696 211.953 181.696 211.723C181.696 211.611 181.719 211.499 181.762 211.395C181.806 211.292 181.87 211.197 181.95 211.119C182.031 211.04 182.126 210.978 182.231 210.936C182.335 210.895 182.447 210.875 182.56 210.877H271.636C271.749 210.875 271.861 210.895 271.966 210.936C272.07 210.978 272.166 211.04 272.246 211.119C272.327 211.197 272.39 211.292 272.434 211.395C272.478 211.499 272.5 211.611 272.5 211.723C272.5 211.953 272.409 212.172 272.247 212.334C272.085 212.496 271.866 212.587 271.636 212.587Z" fill="#68E1FD"/>
<path d="M170.31 225.125H140.348C140.114 225.125 139.89 225.032 139.725 224.867C139.559 224.701 139.467 224.477 139.467 224.243C139.467 224.009 139.559 223.785 139.725 223.62C139.89 223.454 140.114 223.361 140.348 223.361H170.31C170.544 223.361 170.768 223.454 170.934 223.62C171.099 223.785 171.192 224.009 171.192 224.243C171.192 224.477 171.099 224.701 170.934 224.867C170.768 225.032 170.544 225.125 170.31 225.125Z" fill="white"/>
<path d="M224.736 225.125H176.426C176.193 225.125 175.968 225.032 175.803 224.867C175.638 224.701 175.545 224.477 175.545 224.243C175.545 224.009 175.638 223.785 175.803 223.62C175.968 223.454 176.193 223.361 176.426 223.361H224.736C224.97 223.361 225.194 223.454 225.36 223.62C225.525 223.785 225.618 224.009 225.618 224.243C225.618 224.477 225.525 224.701 225.36 224.867C225.194 225.032 224.97 225.125 224.736 225.125Z" fill="#68E1FD"/>
<path d="M291.5 225.125H243.225C242.991 225.125 242.767 225.032 242.602 224.867C242.437 224.701 242.344 224.477 242.344 224.243C242.344 224.009 242.437 223.785 242.602 223.62C242.767 223.454 242.991 223.361 243.225 223.361H291.535C291.769 223.361 291.993 223.454 292.158 223.62C292.324 223.785 292.416 224.009 292.416 224.243C292.416 224.477 292.324 224.701 292.158 224.867C291.993 225.032 291.769 225.125 291.535 225.125H291.5Z" fill="#68E1FD"/>
<path d="M170.31 237.662H140.348C140.114 237.662 139.89 237.569 139.725 237.404C139.559 237.238 139.467 237.014 139.467 236.78C139.467 236.547 139.559 236.322 139.725 236.157C139.89 235.992 140.114 235.899 140.348 235.899H170.31C170.544 235.899 170.768 235.992 170.934 236.157C171.099 236.322 171.192 236.547 171.192 236.78C171.192 237.014 171.099 237.238 170.934 237.404C170.768 237.569 170.544 237.662 170.31 237.662Z" fill="white"/>
<path d="M224.736 237.662H182.56C182.326 237.662 182.102 237.569 181.937 237.404C181.771 237.238 181.678 237.014 181.678 236.78C181.678 236.547 181.771 236.322 181.937 236.157C182.102 235.992 182.326 235.899 182.56 235.899H224.736C224.97 235.899 225.194 235.992 225.36 236.157C225.525 236.322 225.618 236.547 225.618 236.78C225.618 237.014 225.525 237.238 225.36 237.404C225.194 237.569 224.97 237.662 224.736 237.662Z" fill="#68E1FD"/>
<path d="M249.094 237.662H231.857C231.623 237.662 231.399 237.569 231.234 237.404C231.068 237.238 230.976 237.014 230.976 236.78C230.976 236.547 231.068 236.322 231.234 236.157C231.399 235.992 231.623 235.899 231.857 235.899H249.094C249.328 235.899 249.552 235.992 249.717 236.157C249.883 236.322 249.975 236.547 249.975 236.78C249.975 237.014 249.883 237.238 249.717 237.404C249.552 237.569 249.328 237.662 249.094 237.662Z" fill="#68E1FD"/>
<path d="M170.31 250.199H140.348C140.235 250.202 140.123 250.182 140.019 250.14C139.914 250.099 139.819 250.037 139.738 249.958C139.658 249.879 139.594 249.785 139.55 249.681C139.507 249.577 139.484 249.466 139.484 249.353C139.484 249.124 139.575 248.904 139.737 248.742C139.899 248.58 140.119 248.489 140.348 248.489H170.31C170.423 248.489 170.534 248.511 170.638 248.555C170.742 248.599 170.836 248.663 170.915 248.743C170.994 248.824 171.056 248.919 171.097 249.024C171.139 249.128 171.159 249.24 171.156 249.353C171.159 249.465 171.139 249.576 171.097 249.68C171.055 249.783 170.993 249.878 170.914 249.957C170.835 250.036 170.741 250.098 170.637 250.14C170.533 250.182 170.422 250.202 170.31 250.199Z" fill="white"/>
<path d="M239.876 250.199H178.189C177.964 250.199 177.749 250.11 177.591 249.951C177.432 249.793 177.343 249.577 177.343 249.353C177.343 249.127 177.431 248.91 177.589 248.748C177.748 248.587 177.963 248.494 178.189 248.489H239.876C240.105 248.489 240.325 248.58 240.487 248.742C240.649 248.904 240.74 249.124 240.74 249.353C240.74 249.466 240.717 249.577 240.674 249.681C240.63 249.785 240.566 249.879 240.486 249.958C240.405 250.037 240.31 250.099 240.205 250.14C240.101 250.182 239.989 250.202 239.876 250.199Z" fill="#68E1FD"/>
<path d="M277.136 250.199H247.173C247.06 250.202 246.949 250.182 246.844 250.14C246.739 250.099 246.644 250.037 246.563 249.958C246.483 249.879 246.419 249.785 246.375 249.681C246.332 249.577 246.309 249.466 246.309 249.353C246.309 249.124 246.4 248.904 246.562 248.742C246.724 248.58 246.944 248.489 247.173 248.489H277.136C277.361 248.494 277.577 248.587 277.735 248.748C277.893 248.91 277.982 249.127 277.981 249.353C277.981 249.577 277.892 249.793 277.734 249.951C277.575 250.11 277.36 250.199 277.136 250.199Z" fill="#68E1FD"/>
<path d="M149.178 262.737H133.315C133.082 262.737 132.858 262.644 132.692 262.478C132.527 262.313 132.434 262.089 132.434 261.855C132.434 261.621 132.527 261.397 132.692 261.232C132.858 261.066 133.082 260.973 133.315 260.973H149.178C149.412 260.973 149.636 261.066 149.801 261.232C149.966 261.397 150.059 261.621 150.059 261.855C150.059 262.089 149.966 262.313 149.801 262.478C149.636 262.644 149.412 262.737 149.178 262.737Z" fill="white"/>
<path d="M231.857 262.737H162.344C162.11 262.737 161.886 262.644 161.721 262.478C161.555 262.313 161.463 262.089 161.463 261.855C161.463 261.621 161.555 261.397 161.721 261.232C161.886 261.066 162.11 260.973 162.344 260.973H231.857C232.091 260.973 232.315 261.066 232.48 261.232C232.645 261.397 232.738 261.621 232.738 261.855C232.738 262.089 232.645 262.313 232.48 262.478C232.315 262.644 232.091 262.737 231.857 262.737Z" fill="#68E1FD"/>
<path d="M163.26 275.292H133.298C133.064 275.292 132.84 275.199 132.675 275.033C132.509 274.868 132.417 274.644 132.417 274.41C132.417 274.176 132.509 273.952 132.675 273.787C132.84 273.621 133.064 273.528 133.298 273.528H163.26C163.494 273.528 163.718 273.621 163.884 273.787C164.049 273.952 164.142 274.176 164.142 274.41C164.142 274.644 164.049 274.868 163.884 275.033C163.718 275.199 163.494 275.292 163.26 275.292Z" fill="white"/>
<path d="M197.559 287.829H137.634C137.521 287.829 137.41 287.806 137.306 287.763C137.202 287.719 137.108 287.655 137.029 287.575C136.95 287.494 136.888 287.399 136.847 287.294C136.805 287.189 136.785 287.077 136.788 286.965C136.785 286.853 136.805 286.742 136.847 286.638C136.889 286.534 136.951 286.44 137.03 286.361C137.109 286.282 137.203 286.22 137.307 286.178C137.411 286.136 137.522 286.116 137.634 286.118H197.559C197.671 286.116 197.783 286.136 197.888 286.178C197.992 286.219 198.088 286.281 198.168 286.36C198.249 286.439 198.313 286.533 198.356 286.637C198.4 286.741 198.422 286.852 198.422 286.965C198.422 287.194 198.331 287.414 198.169 287.576C198.007 287.738 197.788 287.829 197.559 287.829Z" fill="white"/>
<path d="M249.094 287.829H207.482C207.369 287.829 207.257 287.806 207.154 287.763C207.05 287.719 206.956 287.655 206.877 287.575C206.798 287.494 206.736 287.399 206.695 287.294C206.653 287.189 206.633 287.077 206.636 286.965C206.633 286.853 206.653 286.742 206.695 286.638C206.737 286.534 206.799 286.44 206.878 286.361C206.957 286.282 207.051 286.22 207.155 286.178C207.259 286.136 207.37 286.116 207.482 286.118H249.094C249.207 286.116 249.319 286.136 249.423 286.178C249.528 286.219 249.623 286.281 249.704 286.36C249.784 286.439 249.848 286.533 249.892 286.637C249.935 286.741 249.958 286.852 249.958 286.965C249.958 287.194 249.867 287.414 249.705 287.576C249.543 287.738 249.323 287.829 249.094 287.829Z" fill="#68E1FD"/>
<path d="M306.569 287.829H255.051C254.939 287.829 254.827 287.806 254.724 287.763C254.62 287.719 254.526 287.655 254.447 287.575C254.368 287.494 254.306 287.399 254.265 287.294C254.223 287.189 254.203 287.077 254.205 286.965C254.203 286.853 254.223 286.742 254.265 286.638C254.307 286.534 254.369 286.44 254.448 286.361C254.527 286.282 254.621 286.22 254.725 286.178C254.829 286.136 254.94 286.116 255.051 286.118H306.569C306.794 286.118 307.009 286.208 307.167 286.366C307.326 286.525 307.415 286.74 307.415 286.965C307.415 287.191 307.327 287.408 307.169 287.57C307.01 287.731 306.795 287.824 306.569 287.829Z" fill="#68E1FD"/>
<path d="M227.556 300.366H140.313C140.084 300.366 139.864 300.275 139.702 300.113C139.54 299.951 139.449 299.731 139.449 299.502C139.449 299.39 139.471 299.278 139.515 299.174C139.559 299.07 139.623 298.976 139.703 298.897C139.783 298.819 139.879 298.757 139.983 298.715C140.088 298.674 140.2 298.653 140.313 298.656H227.556C227.669 298.653 227.781 298.674 227.886 298.715C227.99 298.757 228.086 298.819 228.166 298.897C228.246 298.976 228.31 299.07 228.354 299.174C228.398 299.278 228.42 299.39 228.42 299.502C228.42 299.731 228.329 299.951 228.167 300.113C228.005 300.275 227.785 300.366 227.556 300.366Z" fill="white"/>
<path d="M272.764 300.366H233.514C233.285 300.366 233.065 300.275 232.903 300.113C232.741 299.951 232.65 299.731 232.65 299.502C232.65 299.39 232.672 299.278 232.716 299.174C232.76 299.07 232.824 298.976 232.904 298.897C232.984 298.819 233.08 298.757 233.184 298.715C233.289 298.674 233.401 298.653 233.514 298.656H272.764C272.876 298.653 272.987 298.674 273.091 298.715C273.195 298.757 273.289 298.819 273.368 298.898C273.447 298.977 273.509 299.072 273.551 299.175C273.593 299.279 273.613 299.39 273.611 299.502C273.613 299.615 273.593 299.727 273.551 299.831C273.51 299.936 273.448 300.032 273.369 300.112C273.29 300.193 273.196 300.257 273.092 300.3C272.989 300.344 272.877 300.366 272.764 300.366Z" fill="#68E1FD"/>
<path d="M396.122 300.366H279.409C279.183 300.362 278.968 300.269 278.81 300.107C278.652 299.945 278.563 299.728 278.563 299.502C278.563 299.278 278.652 299.062 278.811 298.904C278.97 298.745 279.185 298.656 279.409 298.656H396.122C396.234 298.653 396.346 298.674 396.451 298.715C396.556 298.757 396.651 298.819 396.732 298.897C396.812 298.976 396.876 299.07 396.919 299.174C396.963 299.278 396.986 299.39 396.986 299.502C396.986 299.731 396.895 299.951 396.733 300.113C396.571 300.275 396.351 300.366 396.122 300.366Z" fill="#68E1FD"/>
<path d="M181.22 312.904H139.96C139.726 312.904 139.502 312.811 139.337 312.645C139.172 312.48 139.079 312.256 139.079 312.022C139.079 311.788 139.172 311.564 139.337 311.398C139.502 311.233 139.726 311.14 139.96 311.14H181.22C181.454 311.14 181.678 311.233 181.843 311.398C182.009 311.564 182.102 311.788 182.102 312.022C182.102 312.256 182.009 312.48 181.843 312.645C181.678 312.811 181.454 312.904 181.22 312.904Z" fill="white"/>
<path d="M219.819 312.904H189.434C189.2 312.904 188.976 312.811 188.81 312.645C188.645 312.48 188.552 312.256 188.552 312.022C188.552 311.788 188.645 311.564 188.81 311.398C188.976 311.233 189.2 311.14 189.434 311.14H219.819C220.053 311.14 220.277 311.233 220.442 311.398C220.607 311.564 220.7 311.788 220.7 312.022C220.7 312.256 220.607 312.48 220.442 312.645C220.277 312.811 220.053 312.904 219.819 312.904Z" fill="#68E1FD"/>
<path d="M258.383 312.904H227.997C227.763 312.904 227.539 312.811 227.374 312.645C227.209 312.48 227.116 312.256 227.116 312.022C227.116 311.788 227.209 311.564 227.374 311.398C227.539 311.233 227.763 311.14 227.997 311.14H258.383C258.616 311.14 258.84 311.233 259.006 311.398C259.171 311.564 259.264 311.788 259.264 312.022C259.264 312.256 259.171 312.48 259.006 312.645C258.84 312.811 258.616 312.904 258.383 312.904Z" fill="#68E1FD"/>
<path d="M212.91 325.441H139.96C139.848 325.443 139.736 325.423 139.631 325.381C139.526 325.34 139.431 325.278 139.35 325.199C139.27 325.12 139.206 325.026 139.163 324.922C139.119 324.819 139.096 324.707 139.096 324.594C139.096 324.365 139.187 324.145 139.349 323.983C139.511 323.821 139.731 323.73 139.96 323.73H212.91C213.139 323.73 213.359 323.821 213.521 323.983C213.683 324.145 213.774 324.365 213.774 324.594C213.774 324.707 213.751 324.819 213.708 324.922C213.664 325.026 213.6 325.12 213.52 325.199C213.439 325.278 213.344 325.34 213.239 325.381C213.134 325.423 213.023 325.443 212.91 325.441Z" fill="white"/>
<path d="M258.383 325.441H221.899C221.787 325.443 221.676 325.423 221.572 325.381C221.468 325.34 221.374 325.277 221.295 325.198C221.216 325.119 221.154 325.025 221.112 324.921C221.071 324.817 221.05 324.706 221.053 324.594C221.05 324.482 221.071 324.37 221.112 324.265C221.153 324.16 221.215 324.065 221.294 323.984C221.373 323.904 221.467 323.84 221.571 323.796C221.675 323.753 221.786 323.73 221.899 323.73H258.383C258.495 323.73 258.607 323.753 258.71 323.796C258.814 323.84 258.908 323.904 258.987 323.984C259.066 324.065 259.128 324.16 259.169 324.265C259.211 324.37 259.231 324.482 259.229 324.594C259.231 324.706 259.211 324.817 259.169 324.921C259.127 325.025 259.065 325.119 258.986 325.198C258.907 325.277 258.813 325.34 258.709 325.381C258.605 325.423 258.494 325.443 258.383 325.441Z" fill="#68E1FD"/>
<path d="M322.89 325.441H267.336C267.224 325.443 267.113 325.423 267.009 325.381C266.906 325.34 266.811 325.277 266.732 325.198C266.653 325.119 266.591 325.025 266.55 324.921C266.508 324.817 266.488 324.706 266.49 324.594C266.488 324.482 266.508 324.37 266.549 324.265C266.591 324.16 266.653 324.065 266.731 323.984C266.81 323.904 266.904 323.84 267.008 323.796C267.112 323.753 267.223 323.73 267.336 323.73H322.89C323.003 323.73 323.116 323.753 323.22 323.796C323.325 323.84 323.42 323.903 323.501 323.983C323.581 324.064 323.644 324.159 323.688 324.264C323.731 324.369 323.754 324.481 323.754 324.594C323.754 324.707 323.731 324.819 323.688 324.922C323.644 325.026 323.58 325.12 323.5 325.199C323.419 325.278 323.324 325.34 323.219 325.381C323.114 325.423 323.003 325.443 322.89 325.441Z" fill="#68E1FD"/>
<path d="M384.225 325.441H328.742C328.629 325.443 328.517 325.423 328.412 325.381C328.308 325.34 328.212 325.278 328.132 325.199C328.051 325.12 327.988 325.026 327.944 324.922C327.9 324.819 327.878 324.707 327.878 324.594C327.878 324.365 327.969 324.145 328.131 323.983C328.293 323.821 328.512 323.73 328.742 323.73H384.225C384.454 323.73 384.674 323.821 384.836 323.983C384.998 324.145 385.089 324.365 385.089 324.594C385.089 324.707 385.066 324.819 385.023 324.922C384.979 325.026 384.915 325.12 384.835 325.199C384.754 325.278 384.659 325.34 384.554 325.381C384.449 325.423 384.338 325.443 384.225 325.441Z" fill="#68E1FD"/>
<path d="M201.93 337.978H158.414C158.301 337.98 158.189 337.96 158.084 337.919C157.98 337.877 157.884 337.815 157.804 337.737C157.723 337.658 157.66 337.564 157.616 337.46C157.572 337.356 157.55 337.244 157.55 337.132C157.55 337.018 157.572 336.906 157.616 336.801C157.659 336.696 157.723 336.601 157.803 336.521C157.883 336.441 157.978 336.377 158.083 336.333C158.188 336.29 158.3 336.268 158.414 336.268H201.93C202.042 336.268 202.154 336.29 202.258 336.334C202.361 336.377 202.455 336.441 202.534 336.522C202.613 336.602 202.675 336.698 202.716 336.802C202.758 336.907 202.778 337.019 202.776 337.132C202.778 337.244 202.758 337.355 202.716 337.458C202.674 337.562 202.612 337.656 202.533 337.736C202.454 337.815 202.36 337.877 202.256 337.919C202.152 337.96 202.041 337.981 201.93 337.978Z" fill="white"/>
<path d="M253.606 337.978H210.09C209.978 337.981 209.867 337.96 209.763 337.919C209.66 337.877 209.565 337.815 209.486 337.736C209.407 337.656 209.345 337.562 209.304 337.458C209.262 337.355 209.242 337.244 209.244 337.132C209.242 337.019 209.262 336.907 209.303 336.802C209.345 336.698 209.407 336.602 209.485 336.522C209.564 336.441 209.658 336.377 209.762 336.334C209.866 336.29 209.977 336.268 210.09 336.268H253.606C253.72 336.268 253.832 336.29 253.937 336.333C254.041 336.377 254.137 336.441 254.217 336.521C254.297 336.601 254.361 336.696 254.404 336.801C254.447 336.906 254.47 337.018 254.47 337.132C254.47 337.244 254.447 337.356 254.404 337.46C254.36 337.564 254.296 337.658 254.216 337.737C254.135 337.815 254.04 337.877 253.935 337.919C253.831 337.96 253.719 337.98 253.606 337.978Z" fill="#68E1FD"/>
<path d="M305.653 337.978H262.137C262.024 337.98 261.912 337.96 261.807 337.919C261.703 337.877 261.607 337.815 261.527 337.737C261.447 337.658 261.383 337.564 261.339 337.46C261.295 337.356 261.273 337.244 261.273 337.132C261.273 337.018 261.295 336.906 261.339 336.801C261.382 336.696 261.446 336.601 261.526 336.521C261.606 336.441 261.701 336.377 261.806 336.333C261.911 336.29 262.023 336.268 262.137 336.268H305.653C305.765 336.268 305.877 336.29 305.981 336.334C306.084 336.377 306.178 336.441 306.257 336.522C306.336 336.602 306.398 336.698 306.439 336.802C306.481 336.907 306.501 337.019 306.499 337.132C306.501 337.244 306.481 337.355 306.439 337.458C306.398 337.562 306.335 337.656 306.256 337.736C306.177 337.815 306.083 337.877 305.979 337.919C305.876 337.96 305.765 337.981 305.653 337.978Z" fill="#68E1FD"/>
<path d="M359.55 339.389H316.016C315.783 339.389 315.558 339.296 315.393 339.131C315.228 338.965 315.135 338.741 315.135 338.507C315.135 338.273 315.228 338.049 315.393 337.884C315.558 337.718 315.783 337.625 316.016 337.625H359.55C359.784 337.625 360.008 337.718 360.173 337.884C360.338 338.049 360.431 338.273 360.431 338.507C360.431 338.741 360.338 338.965 360.173 339.131C360.008 339.296 359.784 339.389 359.55 339.389Z" fill="#68E1FD"/>
<path d="M194.88 350.515H164.917C164.805 350.518 164.694 350.498 164.591 350.456C164.487 350.414 164.393 350.352 164.314 350.273C164.235 350.194 164.172 350.1 164.131 349.996C164.089 349.892 164.069 349.781 164.071 349.669C164.069 349.556 164.089 349.444 164.13 349.34C164.172 349.235 164.234 349.14 164.313 349.059C164.391 348.979 164.485 348.915 164.589 348.871C164.693 348.827 164.805 348.805 164.917 348.805H194.88C195.109 348.805 195.328 348.896 195.49 349.058C195.652 349.22 195.743 349.44 195.743 349.669C195.743 349.782 195.721 349.893 195.677 349.997C195.634 350.101 195.57 350.195 195.489 350.274C195.409 350.353 195.313 350.415 195.209 350.456C195.104 350.498 194.992 350.518 194.88 350.515Z" fill="white"/>
<path d="M231.927 350.515H201.965C201.852 350.518 201.74 350.498 201.636 350.456C201.531 350.415 201.436 350.353 201.355 350.274C201.275 350.195 201.211 350.101 201.167 349.997C201.124 349.893 201.101 349.782 201.101 349.669C201.101 349.44 201.192 349.22 201.354 349.058C201.516 348.896 201.736 348.805 201.965 348.805H231.927C232.04 348.805 232.151 348.827 232.255 348.871C232.359 348.915 232.453 348.979 232.532 349.059C232.611 349.14 232.673 349.235 232.714 349.34C232.756 349.444 232.776 349.556 232.773 349.669C232.776 349.781 232.756 349.892 232.714 349.996C232.672 350.1 232.61 350.194 232.531 350.273C232.452 350.352 232.358 350.414 232.254 350.456C232.15 350.498 232.039 350.518 231.927 350.515Z" fill="#68E1FD"/>
<path d="M301.194 351.785L239.259 350.515C239.147 350.515 239.035 350.493 238.931 350.449C238.828 350.406 238.734 350.342 238.655 350.261C238.576 350.181 238.514 350.085 238.473 349.981C238.431 349.876 238.411 349.764 238.413 349.651C238.411 349.536 238.432 349.422 238.476 349.316C238.52 349.21 238.585 349.114 238.668 349.034C238.751 348.955 238.849 348.893 238.957 348.854C239.065 348.814 239.18 348.798 239.295 348.805L301.229 350.075C301.463 350.075 301.687 350.167 301.852 350.333C302.017 350.498 302.11 350.722 302.11 350.956C302.11 351.19 302.017 351.414 301.852 351.58C301.687 351.745 301.463 351.838 301.229 351.838L301.194 351.785Z" fill="#68E1FD"/>
<path d="M324.3 212.587H283.763C283.65 212.587 283.538 212.565 283.435 212.521C283.331 212.478 283.237 212.414 283.158 212.333C283.079 212.253 283.017 212.157 282.976 212.053C282.934 211.948 282.914 211.836 282.917 211.723C282.914 211.612 282.934 211.5 282.976 211.397C283.018 211.293 283.08 211.199 283.159 211.12C283.238 211.041 283.332 210.978 283.436 210.937C283.54 210.895 283.651 210.875 283.763 210.877H324.3C324.413 210.875 324.524 210.895 324.629 210.936C324.734 210.978 324.829 211.04 324.91 211.119C324.99 211.197 325.054 211.292 325.098 211.395C325.141 211.499 325.164 211.611 325.164 211.723C325.164 211.953 325.073 212.172 324.911 212.334C324.749 212.496 324.529 212.587 324.3 212.587Z" fill="#68E1FD"/>
<path d="M354.263 212.711C346.331 212.711 340.445 212.711 340.163 212.535C340.055 212.504 339.954 212.453 339.866 212.384C339.778 212.315 339.705 212.23 339.65 212.132C339.539 211.936 339.511 211.703 339.572 211.485C339.633 211.268 339.777 211.084 339.974 210.973C340.171 210.862 340.403 210.834 340.621 210.895C342.172 211.089 368.927 210.983 386.622 210.895C386.735 210.892 386.846 210.912 386.951 210.954C387.056 210.995 387.151 211.057 387.232 211.136C387.312 211.215 387.376 211.309 387.42 211.413C387.463 211.517 387.486 211.628 387.486 211.741C387.486 211.97 387.395 212.19 387.233 212.352C387.071 212.514 386.851 212.605 386.622 212.605C377.175 212.64 364.133 212.711 354.263 212.711Z" fill="#68E1FD"/>
<path d="M317.832 187.513H258.964C258.73 187.513 258.506 187.42 258.341 187.255C258.176 187.089 258.083 186.865 258.083 186.631C258.083 186.397 258.176 186.173 258.341 186.008C258.506 185.842 258.73 185.75 258.964 185.75H317.832C318.065 185.75 318.289 185.842 318.455 186.008C318.62 186.173 318.713 186.397 318.713 186.631C318.713 186.865 318.62 187.089 318.455 187.255C318.289 187.42 318.065 187.513 317.832 187.513Z" fill="#68E1FD"/>
<path d="M388.243 187.513H329.587C329.354 187.513 329.13 187.42 328.964 187.255C328.799 187.089 328.706 186.865 328.706 186.631C328.706 186.397 328.799 186.173 328.964 186.008C329.13 185.842 329.354 185.75 329.587 185.75H388.173C388.407 185.75 388.631 185.842 388.796 186.008C388.961 186.173 389.054 186.397 389.054 186.631C389.054 186.865 388.961 187.089 388.796 187.255C388.631 187.42 388.407 187.513 388.173 187.513H388.243Z" fill="#68E1FD"/>
<path d="M262.613 175.028C251.738 175.028 243.454 175.028 243.119 175.028C242.896 174.99 242.696 174.864 242.564 174.679C242.432 174.495 242.378 174.265 242.414 174.041C242.449 173.822 242.568 173.626 242.746 173.494C242.924 173.362 243.147 173.305 243.366 173.336C244.864 173.441 288.327 173.336 311.134 173.336C311.363 173.336 311.583 173.427 311.745 173.589C311.907 173.751 311.998 173.971 311.998 174.2C311.998 174.312 311.975 174.424 311.932 174.528C311.888 174.632 311.824 174.726 311.744 174.805C311.663 174.883 311.568 174.945 311.463 174.987C311.359 175.028 311.247 175.048 311.134 175.046C301.564 174.993 279.074 175.028 262.613 175.028Z" fill="#68E1FD"/>
<path d="M327.014 175.011C326.857 175.008 326.703 174.959 326.572 174.872C326.441 174.784 326.338 174.661 326.274 174.517C326.188 174.299 326.188 174.056 326.272 173.837C326.357 173.618 326.522 173.439 326.732 173.336C327.42 173.001 341.114 172.965 367.411 173.336C367.635 173.345 367.848 173.439 368.005 173.6C368.162 173.76 368.252 173.975 368.257 174.2C368.257 174.312 368.234 174.424 368.191 174.528C368.147 174.632 368.083 174.726 368.003 174.805C367.922 174.883 367.827 174.945 367.722 174.987C367.618 175.028 367.506 175.048 367.393 175.046C352.077 174.887 328.794 174.746 327.349 175.046C327.236 175.067 327.12 175.054 327.014 175.011Z" fill="white"/>
<path d="M270.227 262.737H239.876C239.643 262.737 239.418 262.644 239.253 262.478C239.088 262.313 238.995 262.089 238.995 261.855C238.995 261.621 239.088 261.397 239.253 261.232C239.418 261.066 239.643 260.973 239.876 260.973H270.227C270.46 260.973 270.684 261.066 270.85 261.232C271.015 261.397 271.108 261.621 271.108 261.855C271.108 262.089 271.015 262.313 270.85 262.478C270.684 262.644 270.46 262.737 270.227 262.737Z" fill="#68E1FD"/>
<path d="M200.59 275.292H178.259C178.026 275.292 177.801 275.199 177.636 275.033C177.471 274.868 177.378 274.644 177.378 274.41C177.378 274.176 177.471 273.952 177.636 273.787C177.801 273.621 178.026 273.528 178.259 273.528H200.59C200.824 273.528 201.048 273.621 201.213 273.787C201.379 273.952 201.471 274.176 201.471 274.41C201.471 274.644 201.379 274.868 201.213 275.033C201.048 275.199 200.824 275.292 200.59 275.292Z" fill="#68E1FD"/>
<path d="M262.137 275.292H209.068C208.834 275.292 208.61 275.199 208.445 275.033C208.279 274.868 208.187 274.644 208.187 274.41C208.187 274.176 208.279 273.952 208.445 273.787C208.61 273.621 208.834 273.528 209.068 273.528H262.137C262.37 273.528 262.595 273.621 262.76 273.787C262.925 273.952 263.018 274.176 263.018 274.41C263.018 274.644 262.925 274.868 262.76 275.033C262.595 275.199 262.37 275.292 262.137 275.292Z" fill="white"/>
<path d="M375.571 275.292H272.764C272.531 275.292 272.307 275.199 272.141 275.033C271.976 274.868 271.883 274.644 271.883 274.41C271.883 274.176 271.976 273.952 272.141 273.787C272.307 273.621 272.531 273.528 272.764 273.528H375.571C375.805 273.528 376.029 273.621 376.194 273.787C376.36 273.952 376.452 274.176 376.452 274.41C376.452 274.644 376.36 274.868 376.194 275.033C376.029 275.199 375.805 275.292 375.571 275.292Z" fill="#68E1FD"/>
<path d="M100.462 145.969C102.117 145.969 103.459 144.627 103.459 142.971C103.459 141.315 102.117 139.973 100.462 139.973C98.8077 139.973 97.4662 141.315 97.4662 142.971C97.4662 144.627 98.8077 145.969 100.462 145.969Z" fill="#414141"/>
<path d="M110.967 145.969C112.622 145.969 113.963 144.627 113.963 142.971C113.963 141.315 112.622 139.973 110.967 139.973C109.312 139.973 107.971 141.315 107.971 142.971C107.971 144.627 109.312 145.969 110.967 145.969Z" fill="white"/>
<path d="M121.471 145.969C123.126 145.969 124.468 144.627 124.468 142.971C124.468 141.315 123.126 139.973 121.471 139.973C119.817 139.973 118.475 141.315 118.475 142.971C118.475 144.627 119.817 145.969 121.471 145.969Z" fill="white"/>
<path d="M317.691 424.329H205.578L218.25 385.676H305.018L317.691 424.329Z" fill="white"/>
<path d="M317.691 425.21H205.578C205.438 425.215 205.299 425.186 205.172 425.125C205.046 425.064 204.937 424.973 204.853 424.86C204.77 424.747 204.716 424.616 204.694 424.477C204.673 424.338 204.686 424.197 204.732 424.064L217.404 385.412C217.461 385.232 217.574 385.075 217.726 384.964C217.878 384.853 218.062 384.793 218.25 384.795H305.018C305.207 384.793 305.391 384.853 305.543 384.964C305.695 385.075 305.808 385.232 305.864 385.412L318.537 424.064C318.582 424.197 318.595 424.338 318.574 424.477C318.553 424.616 318.499 424.747 318.415 424.86C318.332 424.973 318.222 425.064 318.096 425.125C317.97 425.186 317.831 425.215 317.691 425.21ZM206.794 423.447H316.474L304.384 386.558H218.885L206.794 423.447Z" fill="#414141"/>
<path d="M326.944 424.329H196.325C193.317 424.329 190.879 426.764 190.879 429.768C190.879 432.773 193.317 435.208 196.325 435.208H326.944C329.952 435.208 332.39 432.773 332.39 429.768C332.39 426.764 329.952 424.329 326.944 424.329Z" fill="white"/>
<path d="M326.961 436.108H196.325C194.647 436.108 193.037 435.441 191.851 434.253C190.664 433.066 189.998 431.456 189.998 429.777C189.998 428.098 190.664 426.488 191.851 425.301C193.037 424.114 194.647 423.447 196.325 423.447H326.961C328.639 423.447 330.249 424.114 331.436 425.301C332.622 426.488 333.289 428.098 333.289 429.777C333.289 431.456 332.622 433.066 331.436 434.253C330.249 435.441 328.639 436.108 326.961 436.108ZM196.325 425.21C195.114 425.21 193.953 425.691 193.097 426.548C192.241 427.404 191.76 428.566 191.76 429.777C191.76 430.988 192.241 432.15 193.097 433.007C193.953 433.863 195.114 434.344 196.325 434.344H326.961C328.172 434.344 329.333 433.863 330.189 433.007C331.045 432.15 331.526 430.988 331.526 429.777C331.526 428.566 331.045 427.404 330.189 426.548C329.333 425.691 328.172 425.21 326.961 425.21H196.325Z" fill="#414141"/>
<path d="M208.944 414.084C210.707 413.131 307.821 395.392 307.821 395.392L304.631 385.676H217.863L208.944 414.084Z" fill="#414141"/>
<path d="M208.927 414.965C208.725 414.964 208.531 414.888 208.38 414.754C208.252 414.643 208.16 414.496 208.116 414.333C208.072 414.17 208.078 413.997 208.134 413.837L217.052 385.429C217.102 385.254 217.209 385.1 217.356 384.992C217.502 384.884 217.68 384.827 217.863 384.83H304.631C304.81 384.826 304.987 384.88 305.133 384.985C305.28 385.09 305.388 385.24 305.441 385.412L308.631 395.11C308.666 395.227 308.675 395.35 308.659 395.471C308.644 395.592 308.603 395.708 308.54 395.812C308.477 395.917 308.393 396.007 308.294 396.077C308.194 396.148 308.081 396.197 307.962 396.221C281.348 401.088 211.712 413.942 209.262 414.877C209.156 414.927 209.043 414.957 208.927 414.965ZM218.55 386.54L210.266 412.902C221.934 410.257 289.896 397.808 306.745 394.722L304.067 386.54H218.55Z" fill="#414141"/>
</svg>
